<?xml version="1.0" standalone="no"?><!DOCTYPE svg PUBLIC "-//W3C//DTD SVG 1.1//EN" "http://www.w3.org/Graphics/SVG/1.1/DTD/svg11.dtd"><svg t="1676272401068" class="icon" viewBox="0 0 1024 1024" version="1.1" xmlns="http://www.w3.org/2000/svg" p-id="6146" xmlns:xlink="http://www.w3.org/1999/xlink" width="200" height="200"><path d="M511.3 895.6c-211.6 0-383.8-172.2-383.8-383.8 0-211.6 172.2-383.8 383.8-383.8 211.7 0 383.8 172.2 383.8 383.8 0.1 211.7-172.1 383.8-383.8 383.8z m0-702c-175.4 0-318.2 142.7-318.2 318.2S335.9 830 511.3 830s318.2-142.8 318.2-318.2-142.7-318.2-318.2-318.2z" p-id="6147" fill="#ffffff"></path><path d="M404.1 452.7c-18.1 0-32.8-14.7-32.8-32.8v-50.1c0-18.1 14.7-32.8 32.8-32.8s32.8 14.7 32.8 32.8v50.1c0 18.1-14.6 32.8-32.8 32.8zM618.5 452.7c-18.1 0-32.8-14.7-32.8-32.8v-50.1c0-18.1 14.7-32.8 32.8-32.8s32.8 14.7 32.8 32.8v50.1c0.1 18.1-14.6 32.8-32.8 32.8zM511.3 761.3c-137.6 0-249.5-111.9-249.5-249.5 0-18.1 14.7-32.8 32.8-32.8s32.8 14.7 32.8 32.8c0 101.4 82.5 183.9 183.8 183.9 101.4 0 183.9-82.5 183.9-183.9 0-18.1 14.7-32.8 32.8-32.8 18.1 0 32.8 14.7 32.8 32.8 0.1 137.6-111.8 249.5-249.4 249.5z" p-id="6148" fill="#ffffff"></path></svg>